<svg version="1.0" xmlns="http://www.w3.org/2000/svg"
 width="277.000000pt" height="251.000000pt" viewBox="0 0 277.000000 251.000000"
 preserveAspectRatio="xMidYMid meet">

<g transform="translate(0.000000,251.000000) scale(0.100000,-0.100000)"
fill="#000000" stroke="none">
<path fill="#3a3a3a" d="M2069 2053 c-54 -33 -54 -34 -57 -378 -2 -200 -7 -330 -14 -347 -5
-15 -25 -37 -43 -48 -32 -20 -46 -20 -426 -18 l-394 3 -5 191 c-4 169 -7 194
-24 212 -27 31 -71 37 -104 16 -27 -18 -295 -269 -499 -468 -149 -145 -149
-137 0 -282 249 -243 490 -466 513 -475 32 -12 67 -3 91 23 16 17 19 45 23
212 l5 191 425 5 c394 6 429 7 486 26 161 55 284 188 319 348 13 59 15 130 13
410 l-3 338 -35 29 c-33 28 -38 29 -140 29 -79 0 -111 -5 -131 -17z"/>
</g>
</svg>
